<svg version="1.1" id="Layer_1" xmlns="http://www.w3.org/2000/svg" xmlns:xlink="http://www.w3.org/1999/xlink" x="0px" y="0px"
	 width="100%" viewBox="180 250 880 1000" xml:space="preserve">
<desc>Icon only for solooo.dev</desc>
<path fill="#5B90E0" opacity="1.000000" stroke="none" 
	d="
M969.769531,871.463440 
	C976.491516,837.284607 981.697144,803.798767 982.262573,769.677307 
	C983.655945,685.592163 967.464600,605.530579 928.534729,530.536316 
	C891.263916,458.738007 838.878113,401.095490 768.911926,359.870728 
	C730.440002,337.202637 688.560547,324.719757 644.671875,318.357239 
	C637.775879,317.357544 630.631165,318.066589 623.738403,317.053802 
	C617.927307,316.199890 611.794067,314.948730 606.723267,312.185486 
	C596.178772,306.439270 591.766541,294.862000 593.931702,282.144653 
	C595.753113,271.446594 603.473389,262.946381 615.689941,261.906921 
	C628.507202,260.816376 641.714966,260.848206 654.434387,262.642151 
	C732.042053,273.587738 800.184387,305.633942 859.517639,356.613251 
	C929.478882,416.724335 977.715576,491.261566 1007.201233,578.420715 
	C1020.078796,616.486633 1027.685791,655.533997 1032.240112,695.339844 
	C1035.428467,723.207031 1036.719849,751.118347 1035.617065,779.126099 
	C1033.747314,826.606873 1025.441895,872.999756 1012.205688,918.612183 
	C1001.475403,955.589172 986.712646,990.859009 967.740967,1024.266602 
	C931.494263,1088.094238 883.876587,1141.683716 823.018555,1183.239868 
	C782.147461,1211.148438 738.065002,1231.792236 689.742981,1242.785767 
	C668.667358,1247.580444 647.435608,1252.015137 625.658875,1252.305420 
	C621.696777,1252.358154 617.574524,1252.248169 613.785400,1251.239624 
	C601.395203,1247.942383 593.859436,1237.564087 593.856750,1224.556152 
	C593.854309,1212.201050 601.941467,1200.553467 613.997986,1197.986450 
	C624.354126,1195.781616 635.092896,1195.379639 645.659790,1194.157715 
	C699.755310,1187.902466 748.751404,1168.015503 793.421021,1137.499146 
	C876.866943,1080.492310 929.603943,1001.154053 959.929321,905.859497 
	C963.459839,894.765076 966.408020,883.485229 969.769531,871.463440 
z"/>
<path fill="#5B90E0" opacity="1.000000" stroke="none" 
	d="
M921.194458,859.115845 
	C906.043274,921.709229 879.957092,978.181396 839.212463,1027.214355 
	C805.475403,1067.814331 764.232910,1098.715942 715.596497,1119.850464 
	C687.119629,1132.224854 657.382080,1138.563354 626.775269,1141.584106 
	C608.640259,1143.373779 594.528992,1131.566528 593.724548,1114.700439 
	C593.037537,1100.296387 603.591125,1087.804077 618.411316,1085.719116 
	C630.923157,1083.958740 643.644165,1083.246582 655.960144,1080.610840 
	C698.937073,1071.412964 736.468506,1051.239136 769.064758,1021.973816 
	C816.580322,979.313599 846.062988,925.652771 863.993347,865.020752 
	C877.780273,818.399902 880.923035,770.691467 877.583618,722.553833 
	C873.915405,669.676880 859.239929,619.576172 833.595703,573.262512 
	C805.646973,522.786987 768.002808,481.093201 716.347656,453.583069 
	C688.421387,438.710327 658.884949,429.065399 626.995789,427.450226 
	C617.702698,426.979523 608.422729,426.284363 601.239319,418.721497 
	C592.918457,409.960999 591.477661,399.754761 595.158264,389.079224 
	C598.675049,378.878540 606.491638,372.026764 617.538513,371.950897 
	C630.426514,371.862366 643.545898,372.285736 656.183105,374.585236 
	C711.303772,384.615082 759.447693,409.432037 801.135315,446.484772 
	C852.621826,492.247009 887.908936,548.669983 909.533997,613.959473 
	C920.588013,647.333435 926.710510,681.492004 930.496826,716.404663 
	C935.700012,764.382812 930.423279,811.399231 921.194458,859.115845 
z"/>
<path fill="#000000" opacity="1.000000" stroke="none" 
	d="
M697.929077,837.871948 
	C677.314575,853.197571 657.283142,868.114685 637.277405,883.066223 
	C631.847900,887.124023 626.220520,890.276978 619.050354,890.074524 
	C607.994629,889.762329 598.192505,883.432556 594.223145,873.015076 
	C590.303711,862.728516 592.157776,853.249878 599.810547,845.322998 
	C603.254211,841.756042 607.353882,838.789246 611.319336,835.764282 
	C642.827759,811.728455 674.378357,787.747864 705.902283,763.732300 
	C707.470215,762.537842 708.910828,761.176208 711.210205,759.208069 
	C708.240906,756.652466 705.728516,754.213379 702.945374,752.137268 
	C671.712341,728.839661 640.435669,705.600525 609.177734,682.336243 
	C606.775635,680.548462 604.263306,678.865356 602.078735,676.835876 
	C588.229675,663.970459 591.781006,648.908936 598.353638,639.877563 
	C606.499878,628.683899 622.634155,626.256653 635.074036,634.567993 
	C643.925354,640.481812 652.299072,647.114563 660.839417,653.488770 
	C696.336914,679.983093 731.783447,706.545837 767.321777,732.985168 
	C779.051270,741.711548 783.270813,753.067383 779.940063,767.180603 
	C778.277588,774.225037 774.282104,779.786316 768.451721,784.197510 
	C748.533630,799.266846 728.717102,814.470520 708.859802,829.620239 
	C705.418823,832.245422 701.968079,834.857910 697.929077,837.871948 
z"/>
<path fill="#000000" opacity="1.000000" stroke="none" 
	d="
M324.049347,861.844971 
	C290.958405,837.065002 258.466675,812.672729 225.983505,788.268982 
	C224.119858,786.868896 222.287766,785.421204 220.506042,783.918457 
	C202.959702,769.120605 203.241638,747.782288 221.402985,733.821655 
	C234.602066,723.675476 248.099213,713.917725 261.433594,703.946777 
	C289.702972,682.807922 317.917358,661.595276 346.246979,640.537598 
	C350.755310,637.186523 355.454346,633.800232 360.572021,631.619751 
	C372.299042,626.623047 385.287109,630.900024 392.214478,641.288574 
	C399.220947,651.795776 398.377502,666.873962 388.927887,675.106323 
	C378.407928,684.271301 366.942566,692.368896 355.727509,700.714417 
	C331.684113,718.605957 307.533569,736.353455 283.439331,754.176758 
	C281.576996,755.554382 279.812317,757.064026 277.268799,759.099060 
	C283.310394,763.787659 288.933655,768.243591 294.651978,772.573914 
	C324.388153,795.092285 354.133606,817.598511 383.913055,840.059509 
	C389.930725,844.598267 394.912262,849.802368 396.156403,857.585083 
	C397.924713,868.646851 395.146454,878.192200 385.877533,885.017578 
	C376.839722,891.672729 364.711273,891.854736 354.985626,885.051575 
	C344.623108,877.802917 334.741821,869.866394 324.049347,861.844971 
z"/>
<path fill="#000000" opacity="1.000000" stroke="none" 
	d="
M535.699402,578.777588 
	C560.236694,575.902527 573.957703,591.960510 567.072388,615.137085 
	C558.835205,642.863831 549.813538,670.356689 541.257690,697.989868 
	C519.821350,767.223267 498.474792,836.484497 477.034851,905.716736 
	C474.778839,913.001648 472.931183,920.572327 469.493683,927.294312 
	C464.466766,937.124390 455.549194,941.331055 444.512115,940.076660 
	C433.613251,938.838013 425.814911,933.041687 422.423157,922.528687 
	C420.125732,915.407654 421.055542,908.131042 423.327698,900.929504 
	C433.432373,868.902710 443.415710,836.837341 453.336334,804.752930 
	C468.167450,756.787170 482.847656,708.774780 497.716949,660.820923 
	C504.312805,639.549011 511.294342,618.396851 517.937622,597.139343 
	C520.711182,588.264221 525.891541,581.913452 535.699402,578.777588 
z"/>
<path fill="#5B90E0" opacity="1.000000" stroke="none" 
	d="
M661.337402,546.505310 
	C647.847229,540.977539 634.530762,538.472900 620.768860,537.922363 
	C608.923889,537.448547 600.548706,531.214600 595.898376,520.714050 
	C591.568115,510.935913 592.576538,501.165558 599.269775,492.437988 
	C605.251892,484.637848 613.611572,481.851868 623.026917,482.043365 
	C644.295349,482.475922 664.601929,487.642212 683.920044,496.184174 
	C736.146423,519.277344 773.433167,557.645203 797.658325,609.035339 
	C804.625549,623.815247 801.153076,638.150818 788.988586,646.071167 
	C776.250610,654.364746 760.354187,651.106079 752.239990,638.312378 
	C749.934387,634.677063 748.357117,630.583862 746.390686,626.728821 
	C727.721130,590.127319 700.723572,562.306274 661.337402,546.505310 
z"/>
<path fill="#5B90E0" opacity="1.000000" stroke="none" 
	d="
M777.404175,862.224609 
	C798.999084,867.961853 807.327759,884.521240 797.961487,903.721741 
	C765.457581,970.353455 713.816101,1013.342896 640.664246,1028.935547 
	C632.984375,1030.572510 624.706116,1031.185669 616.942810,1030.267212 
	C601.966370,1028.495728 593.239136,1016.884827 593.771362,1001.532593 
	C594.239929,988.014771 604.255554,977.336792 618.287537,975.762573 
	C632.558289,974.161499 646.654785,971.901733 659.964355,966.206787 
	C699.150757,949.439209 728.468750,922.066406 747.970093,884.174072 
	C749.036560,882.101807 750.020203,879.987122 751.071655,877.906982 
	C756.359802,867.445679 764.529663,861.647278 777.404175,862.224609 
z"/>
</svg>