<svg version="1.1" id="Layer_1" xmlns="http://www.w3.org/2000/svg" xmlns:xlink="http://www.w3.org/1999/xlink" x="0px" y="0px"
	 width="100%" viewBox="180 250 2520 1000" xml:space="preserve">
<path fill="#5B90E0" opacity="1.000000" stroke="none" 
	d="
M969.769531,871.463440 
	C976.491516,837.284607 981.697144,803.798767 982.262573,769.677307 
	C983.655945,685.592163 967.464600,605.530579 928.534729,530.536316 
	C891.263916,458.738007 838.878113,401.095490 768.911926,359.870728 
	C730.440002,337.202637 688.560547,324.719757 644.671875,318.357239 
	C637.775879,317.357544 630.631165,318.066589 623.738403,317.053802 
	C617.927307,316.199890 611.794067,314.948730 606.723267,312.185486 
	C596.178772,306.439270 591.766541,294.862000 593.931702,282.144653 
	C595.753113,271.446594 603.473389,262.946381 615.689941,261.906921 
	C628.507202,260.816376 641.714966,260.848206 654.434387,262.642151 
	C732.042053,273.587738 800.184387,305.633942 859.517639,356.613251 
	C929.478882,416.724335 977.715576,491.261566 1007.201233,578.420715 
	C1020.078796,616.486633 1027.685791,655.533997 1032.240112,695.339844 
	C1035.428467,723.207031 1036.719849,751.118347 1035.617065,779.126099 
	C1033.747314,826.606873 1025.441895,872.999756 1012.205688,918.612183 
	C1001.475403,955.589172 986.712646,990.859009 967.740967,1024.266602 
	C931.494263,1088.094238 883.876587,1141.683716 823.018555,1183.239868 
	C782.147461,1211.148438 738.065002,1231.792236 689.742981,1242.785767 
	C668.667358,1247.580444 647.435608,1252.015137 625.658875,1252.305420 
	C621.696777,1252.358154 617.574524,1252.248169 613.785400,1251.239624 
	C601.395203,1247.942383 593.859436,1237.564087 593.856750,1224.556152 
	C593.854309,1212.201050 601.941467,1200.553467 613.997986,1197.986450 
	C624.354126,1195.781616 635.092896,1195.379639 645.659790,1194.157715 
	C699.755310,1187.902466 748.751404,1168.015503 793.421021,1137.499146 
	C876.866943,1080.492310 929.603943,1001.154053 959.929321,905.859497 
	C963.459839,894.765076 966.408020,883.485229 969.769531,871.463440 
z"/>
<path fill="#5B90E0" opacity="1.000000" stroke="none" 
	d="
M921.194458,859.115845 
	C906.043274,921.709229 879.957092,978.181396 839.212463,1027.214355 
	C805.475403,1067.814331 764.232910,1098.715942 715.596497,1119.850464 
	C687.119629,1132.224854 657.382080,1138.563354 626.775269,1141.584106 
	C608.640259,1143.373779 594.528992,1131.566528 593.724548,1114.700439 
	C593.037537,1100.296387 603.591125,1087.804077 618.411316,1085.719116 
	C630.923157,1083.958740 643.644165,1083.246582 655.960144,1080.610840 
	C698.937073,1071.412964 736.468506,1051.239136 769.064758,1021.973816 
	C816.580322,979.313599 846.062988,925.652771 863.993347,865.020752 
	C877.780273,818.399902 880.923035,770.691467 877.583618,722.553833 
	C873.915405,669.676880 859.239929,619.576172 833.595703,573.262512 
	C805.646973,522.786987 768.002808,481.093201 716.347656,453.583069 
	C688.421387,438.710327 658.884949,429.065399 626.995789,427.450226 
	C617.702698,426.979523 608.422729,426.284363 601.239319,418.721497 
	C592.918457,409.960999 591.477661,399.754761 595.158264,389.079224 
	C598.675049,378.878540 606.491638,372.026764 617.538513,371.950897 
	C630.426514,371.862366 643.545898,372.285736 656.183105,374.585236 
	C711.303772,384.615082 759.447693,409.432037 801.135315,446.484772 
	C852.621826,492.247009 887.908936,548.669983 909.533997,613.959473 
	C920.588013,647.333435 926.710510,681.492004 930.496826,716.404663 
	C935.700012,764.382812 930.423279,811.399231 921.194458,859.115845 
z"/>
<path fill="#000000" opacity="1.000000" stroke="none" 
	d="
M697.929077,837.871948 
	C677.314575,853.197571 657.283142,868.114685 637.277405,883.066223 
	C631.847900,887.124023 626.220520,890.276978 619.050354,890.074524 
	C607.994629,889.762329 598.192505,883.432556 594.223145,873.015076 
	C590.303711,862.728516 592.157776,853.249878 599.810547,845.322998 
	C603.254211,841.756042 607.353882,838.789246 611.319336,835.764282 
	C642.827759,811.728455 674.378357,787.747864 705.902283,763.732300 
	C707.470215,762.537842 708.910828,761.176208 711.210205,759.208069 
	C708.240906,756.652466 705.728516,754.213379 702.945374,752.137268 
	C671.712341,728.839661 640.435669,705.600525 609.177734,682.336243 
	C606.775635,680.548462 604.263306,678.865356 602.078735,676.835876 
	C588.229675,663.970459 591.781006,648.908936 598.353638,639.877563 
	C606.499878,628.683899 622.634155,626.256653 635.074036,634.567993 
	C643.925354,640.481812 652.299072,647.114563 660.839417,653.488770 
	C696.336914,679.983093 731.783447,706.545837 767.321777,732.985168 
	C779.051270,741.711548 783.270813,753.067383 779.940063,767.180603 
	C778.277588,774.225037 774.282104,779.786316 768.451721,784.197510 
	C748.533630,799.266846 728.717102,814.470520 708.859802,829.620239 
	C705.418823,832.245422 701.968079,834.857910 697.929077,837.871948 
z"/>
<path fill="#000000" opacity="1.000000" stroke="none" 
	d="
M324.049347,861.844971 
	C290.958405,837.065002 258.466675,812.672729 225.983505,788.268982 
	C224.119858,786.868896 222.287766,785.421204 220.506042,783.918457 
	C202.959702,769.120605 203.241638,747.782288 221.402985,733.821655 
	C234.602066,723.675476 248.099213,713.917725 261.433594,703.946777 
	C289.702972,682.807922 317.917358,661.595276 346.246979,640.537598 
	C350.755310,637.186523 355.454346,633.800232 360.572021,631.619751 
	C372.299042,626.623047 385.287109,630.900024 392.214478,641.288574 
	C399.220947,651.795776 398.377502,666.873962 388.927887,675.106323 
	C378.407928,684.271301 366.942566,692.368896 355.727509,700.714417 
	C331.684113,718.605957 307.533569,736.353455 283.439331,754.176758 
	C281.576996,755.554382 279.812317,757.064026 277.268799,759.099060 
	C283.310394,763.787659 288.933655,768.243591 294.651978,772.573914 
	C324.388153,795.092285 354.133606,817.598511 383.913055,840.059509 
	C389.930725,844.598267 394.912262,849.802368 396.156403,857.585083 
	C397.924713,868.646851 395.146454,878.192200 385.877533,885.017578 
	C376.839722,891.672729 364.711273,891.854736 354.985626,885.051575 
	C344.623108,877.802917 334.741821,869.866394 324.049347,861.844971 
z"/>
<path fill="#000000" opacity="1.000000" stroke="none" 
	d="
M535.699402,578.777588 
	C560.236694,575.902527 573.957703,591.960510 567.072388,615.137085 
	C558.835205,642.863831 549.813538,670.356689 541.257690,697.989868 
	C519.821350,767.223267 498.474792,836.484497 477.034851,905.716736 
	C474.778839,913.001648 472.931183,920.572327 469.493683,927.294312 
	C464.466766,937.124390 455.549194,941.331055 444.512115,940.076660 
	C433.613251,938.838013 425.814911,933.041687 422.423157,922.528687 
	C420.125732,915.407654 421.055542,908.131042 423.327698,900.929504 
	C433.432373,868.902710 443.415710,836.837341 453.336334,804.752930 
	C468.167450,756.787170 482.847656,708.774780 497.716949,660.820923 
	C504.312805,639.549011 511.294342,618.396851 517.937622,597.139343 
	C520.711182,588.264221 525.891541,581.913452 535.699402,578.777588 
z"/>
<path fill="#000000" opacity="1.000000" stroke="none" 
	d="
M2271.864258,847.161987 
	C2269.583008,862.679504 2259.962646,868.785645 2246.329102,864.262573 
	C2239.374023,861.955139 2237.125732,858.707886 2234.526611,846.568298 
	C2233.049561,847.533936 2231.566895,848.083374 2230.691406,849.137207 
	C2208.604492,875.723816 2167.168213,872.365234 2143.998047,853.294556 
	C2121.086914,834.437134 2113.023682,809.171753 2113.020020,780.666565 
	C2113.018066,766.165466 2116.952637,752.450989 2123.431641,739.442139 
	C2137.579346,711.035645 2168.421143,695.021057 2199.659180,700.227905 
	C2207.957520,701.611023 2215.598877,704.882996 2222.266846,710.176514 
	C2226.054688,713.183411 2229.862305,716.165588 2234.753662,720.019897 
	C2235.066162,716.227966 2235.437012,713.764282 2235.445312,711.299438 
	C2235.501709,694.651855 2235.473145,678.004150 2235.492676,661.356445 
	C2235.496338,658.361267 2235.394775,655.346252 2235.690186,652.374939 
	C2236.566895,643.555786 2242.599854,637.019409 2250.535889,636.044678 
	C2259.981689,634.884521 2267.020996,638.744019 2270.061035,647.774475 
	C2271.504639,652.063049 2271.842285,656.888000 2271.849365,661.471313 
	C2271.943115,723.068176 2271.890381,784.665344 2271.864258,847.161987 
M2206.967041,735.438232 
	C2188.360596,727.214844 2168.855957,738.124573 2160.301758,750.416565 
	C2147.981934,768.119812 2148.131592,798.995544 2160.533203,816.745728 
	C2176.004395,838.890137 2206.861084,839.595337 2223.977051,818.697815 
	C2242.884521,795.612549 2236.991211,749.224182 2206.967041,735.438232 
z"/>
<path fill="#000000" opacity="1.000000" stroke="none" 
	d="
M2348.520996,863.604065 
	C2288.756592,841.643372 2280.713135,768.199768 2311.786133,729.537109 
	C2340.107910,694.297852 2393.840088,689.516724 2427.618652,719.565491 
	C2444.927002,734.962769 2451.547119,755.227234 2453.444336,777.293152 
	C2454.468506,789.204895 2448.703613,794.346985 2436.809326,794.337463 
	C2405.836426,794.312622 2374.863525,794.258057 2343.890625,794.216797 
	C2340.241699,794.211914 2336.592773,794.216125 2332.960938,794.216125 
	C2332.410156,808.141724 2343.743896,824.641479 2358.336426,830.301819 
	C2376.208740,837.234131 2393.523438,836.297119 2409.523438,824.726929 
	C2412.490234,822.581543 2415.285645,820.164551 2418.398682,818.263428 
	C2426.189453,813.505249 2436.749756,815.031677 2442.091553,821.462646 
	C2447.325928,827.764038 2446.851318,837.229126 2440.349609,844.223206 
	C2430.777832,854.519775 2418.417725,860.234253 2405.209229,864.240784 
	C2386.545166,869.902100 2367.874512,870.128601 2348.520996,863.604065 
M2376.701904,731.625427 
	C2352.279297,731.723999 2334.518066,745.005432 2333.065430,764.397705 
	C2359.852295,764.397705 2386.623291,764.397705 2413.462158,764.397705 
	C2411.672607,746.080688 2398.707031,734.228882 2376.701904,731.625427 
z"/>
<path fill="#000000" opacity="1.000000" stroke="none" 
	d="
M2011.718628,734.303223 
	C2031.127319,767.666748 2031.675903,800.528320 2012.145264,833.200684 
	C2004.979614,845.188171 1994.626099,854.204224 1981.891113,859.897888 
	C1951.995972,873.263855 1922.702637,871.753235 1895.589233,853.128967 
	C1869.495850,835.205322 1861.183594,808.499878 1862.807129,778.134888 
	C1863.211548,770.569519 1864.784668,762.906372 1866.947754,755.622803 
	C1876.495605,723.471741 1906.930176,700.828735 1940.711670,699.819153 
	C1970.188721,698.938293 1993.784790,709.914124 2011.718628,734.303223 
M1911.927002,818.991638 
	C1924.394775,832.736206 1939.930908,836.623169 1957.338135,831.765869 
	C1973.967773,827.125549 1982.906250,814.835083 1987.092529,798.569641 
	C1990.285767,786.162659 1989.030518,774.069580 1984.444946,762.352173 
	C1977.478760,744.551147 1961.916382,733.880249 1943.751465,733.931885 
	C1925.801758,733.982910 1910.319214,744.860229 1903.735107,763.163025 
	C1896.795288,782.455078 1897.848511,801.060852 1911.927002,818.991638 
z"/>
<path fill="#5B90E0" opacity="1.000000" stroke="none" 
	d="
M1807.111572,710.754272 
	C1831.247559,724.859375 1842.011475,746.560608 1845.885132,772.456299 
	C1848.192505,787.880615 1846.503662,802.897400 1841.151001,817.623962 
	C1830.554199,846.778564 1803.116821,866.844727 1772.027100,868.380615 
	C1754.623413,869.240417 1738.012939,866.687927 1722.967163,857.781677 
	C1701.289917,844.949951 1688.531250,825.618408 1685.074097,800.746765 
	C1681.034058,771.682190 1686.595825,745.356262 1707.686157,723.162720 
	C1733.725342,695.761353 1775.813232,695.828979 1799.343140,706.779541 
	C1801.757568,707.903198 1804.102661,709.175903 1807.111572,710.754272 
M1741.101318,826.222717 
	C1759.709106,839.470093 1791.130737,835.349731 1802.426392,810.840454 
	C1810.250488,793.863953 1810.427368,776.533630 1803.191772,759.589722 
	C1790.301636,729.404541 1752.224487,728.260437 1734.479004,747.958496 
	C1717.811890,766.459656 1716.454834,807.442139 1741.101318,826.222717 
z"/>
<path fill="#000000" opacity="1.000000" stroke="none" 
	d="
M1264.356689,809.402161 
	C1259.438110,785.888245 1259.674805,763.717896 1270.944458,742.564270 
	C1284.431030,717.249146 1306.296509,704.265320 1333.829956,700.388611 
	C1347.415039,698.475830 1360.972656,700.127014 1374.008789,705.334290 
	C1403.889282,717.269836 1419.327637,740.136169 1423.921265,771.034180 
	C1426.358521,787.428162 1424.391846,803.476074 1418.503784,819.128357 
	C1404.975952,855.089600 1363.514648,874.768982 1326.220825,866.432861 
	C1294.808716,859.411621 1274.450562,840.629333 1264.356689,809.402161 
M1356.308350,735.951538 
	C1332.289551,728.171082 1311.812134,742.688538 1304.485962,758.684204 
	C1296.535767,776.041992 1296.486328,793.598328 1305.153442,810.649475 
	C1319.322021,838.523376 1358.906250,841.805603 1377.792480,816.915649 
	C1397.479492,790.970459 1387.545288,750.849609 1356.308350,735.951538 
z"/>
<path fill="#000000" opacity="1.000000" stroke="none" 
	d="
M1518.987793,832.893921 
	C1505.100830,807.773743 1501.843750,782.253662 1510.011353,755.208801 
	C1520.958496,718.959717 1552.902954,701.803162 1581.021973,700.040161 
	C1632.866821,696.789551 1674.702759,737.306091 1667.470337,796.924438 
	C1664.101685,824.694214 1650.920166,846.552307 1625.125732,859.449646 
	C1587.691528,878.167053 1543.019043,867.173340 1518.987793,832.893921 
M1620.313232,750.925659 
	C1618.950317,749.472229 1617.609009,747.997803 1616.221436,746.568481 
	C1595.124023,724.837280 1560.873901,732.630859 1548.682129,758.365356 
	C1542.153687,772.145447 1541.174805,786.529480 1545.018799,801.131409 
	C1550.252075,821.010925 1566.454468,833.653381 1586.312378,833.866699 
	C1605.853760,834.076599 1622.560059,821.404419 1628.088501,801.758057 
	C1633.008179,784.274902 1631.171387,767.575623 1620.313232,750.925659 
z"/>
<path fill="#000000" opacity="1.000000" stroke="none" 
	d="
M1225.593140,782.346680 
	C1244.461304,797.716370 1249.937866,815.009216 1242.411865,834.624146 
	C1238.467041,844.905518 1231.729248,853.024719 1222.098511,858.466064 
	C1192.632324,875.114624 1146.678589,870.305847 1124.028320,847.765076 
	C1120.093140,843.848999 1116.349243,839.299133 1113.987183,834.341553 
	C1109.870239,825.700806 1112.369385,817.936890 1119.476196,813.260925 
	C1127.147827,808.213318 1136.973999,809.077881 1143.316528,815.463074 
	C1144.716064,816.872131 1145.828003,818.568726 1147.058472,820.143738 
	C1159.366577,835.898682 1175.762451,839.637390 1194.426147,835.760925 
	C1198.166138,834.984192 1201.981323,832.896301 1204.957153,830.438721 
	C1212.761963,823.992920 1212.334961,813.973572 1203.694580,808.713257 
	C1197.805420,805.127869 1191.140869,802.600525 1184.547363,800.441772 
	C1176.343750,797.755981 1167.636597,796.536377 1159.552734,793.575500 
	C1151.503906,790.627502 1143.364258,787.188049 1136.300171,782.427307 
	C1113.456177,767.031860 1110.942993,738.201538 1130.356079,718.643555 
	C1139.743042,709.186462 1151.107178,703.041504 1164.345215,700.955811 
	C1189.126709,697.051331 1212.151733,700.736450 1231.682129,717.797485 
	C1234.630371,720.372986 1237.389893,723.503296 1239.249390,726.915161 
	C1243.009521,733.814148 1241.684204,741.103638 1236.531616,746.205872 
	C1231.264771,751.421265 1222.715454,753.111694 1216.290161,749.345886 
	C1212.347168,747.035034 1208.787964,743.788330 1205.676270,740.393738 
	C1196.637817,730.533997 1185.299561,728.547485 1172.816528,730.082092 
	C1170.872070,730.321167 1168.960693,731.074280 1167.110107,731.787109 
	C1160.798706,734.218140 1155.942627,738.347412 1155.360352,745.354248 
	C1154.766846,752.496582 1159.133789,757.238892 1165.209106,760.206787 
	C1168.760010,761.941467 1172.600464,763.151123 1176.401733,764.293945 
	C1192.933350,769.264221 1210.045654,772.617126 1225.593140,782.346680 
z"/>
<path fill="#5B90E0" opacity="1.000000" stroke="none" 
	d="
M661.337402,546.505310 
	C647.847229,540.977539 634.530762,538.472900 620.768860,537.922363 
	C608.923889,537.448547 600.548706,531.214600 595.898376,520.714050 
	C591.568115,510.935913 592.576538,501.165558 599.269775,492.437988 
	C605.251892,484.637848 613.611572,481.851868 623.026917,482.043365 
	C644.295349,482.475922 664.601929,487.642212 683.920044,496.184174 
	C736.146423,519.277344 773.433167,557.645203 797.658325,609.035339 
	C804.625549,623.815247 801.153076,638.150818 788.988586,646.071167 
	C776.250610,654.364746 760.354187,651.106079 752.239990,638.312378 
	C749.934387,634.677063 748.357117,630.583862 746.390686,626.728821 
	C727.721130,590.127319 700.723572,562.306274 661.337402,546.505310 
z"/>
<path fill="#5B90E0" opacity="1.000000" stroke="none" 
	d="
M777.404175,862.224609 
	C798.999084,867.961853 807.327759,884.521240 797.961487,903.721741 
	C765.457581,970.353455 713.816101,1013.342896 640.664246,1028.935547 
	C632.984375,1030.572510 624.706116,1031.185669 616.942810,1030.267212 
	C601.966370,1028.495728 593.239136,1016.884827 593.771362,1001.532593 
	C594.239929,988.014771 604.255554,977.336792 618.287537,975.762573 
	C632.558289,974.161499 646.654785,971.901733 659.964355,966.206787 
	C699.150757,949.439209 728.468750,922.066406 747.970093,884.174072 
	C749.036560,882.101807 750.020203,879.987122 751.071655,877.906982 
	C756.359802,867.445679 764.529663,861.647278 777.404175,862.224609 
z"/>
<path fill="#000000" opacity="1.000000" stroke="none" 
	d="
M2464.343262,729.873779 
	C2463.402588,727.287415 2462.509766,725.455933 2462.108398,723.522400 
	C2460.195068,714.308594 2463.567627,707.350220 2471.526123,703.766235 
	C2480.365234,699.785706 2489.597900,701.536621 2494.773926,708.947083 
	C2497.778076,713.248291 2500.051025,718.174744 2501.999756,723.079407 
	C2512.795654,750.250000 2523.384766,777.502869 2534.066162,804.718994 
	C2535.123291,807.412781 2536.329834,810.047974 2538.195312,814.415588 
	C2539.956299,810.860779 2541.187256,808.763123 2542.073730,806.528687 
	C2552.732178,779.664062 2563.298096,752.762451 2573.997070,725.914124 
	C2576.081299,720.683289 2578.438232,715.539062 2581.006104,710.527344 
	C2587.363770,698.118896 2605.090088,699.952576 2612.477051,709.056091 
	C2616.491943,714.004211 2616.571777,719.283752 2614.182861,724.965088 
	C2610.061035,734.766296 2606.160645,744.660461 2602.041504,754.462646 
	C2588.784912,786.010559 2575.427734,817.516052 2562.204346,849.077820 
	C2557.940674,859.254517 2550.899414,865.280090 2539.501709,865.443970 
	C2527.469238,865.617004 2519.068359,859.855652 2514.387451,849.121948 
	C2505.357910,828.416626 2496.690186,807.552734 2487.954834,786.720093 
	C2480.118652,768.031311 2472.392334,749.296265 2464.343262,729.873779 
z"/>
<path fill="#000000" opacity="1.000000" stroke="none" 
	d="
M1447.993408,782.000000 
	C1447.928833,740.685059 1447.854736,700.370056 1447.830078,660.055115 
	C1447.828003,656.734436 1447.719727,653.316589 1448.422607,650.110901 
	C1450.542969,640.439880 1458.176880,635.234436 1468.414062,636.050476 
	C1476.906128,636.727295 1483.271240,643.417542 1484.026611,652.661438 
	C1484.270264,655.642212 1484.146851,658.655151 1484.147217,661.653381 
	C1484.153687,721.959473 1484.153809,782.265625 1484.155029,842.571716 
	C1484.155151,843.571289 1484.166260,844.571045 1484.147949,845.570312 
	C1483.909302,858.676880 1477.626221,865.429871 1465.744141,865.356628 
	C1454.389404,865.286621 1448.087524,858.613708 1448.004272,845.971375 
	C1447.866211,824.981812 1447.985718,803.990540 1447.993408,782.000000 
z"/>
<path fill="#000000" opacity="1.000000" stroke="none" 
	d="
M2045.485107,832.275635 
	C2053.932617,816.069031 2069.575928,811.298157 2083.103271,820.138794 
	C2092.695801,826.407715 2096.732178,841.605042 2091.857422,853.100037 
	C2087.503174,863.367920 2074.970459,869.892029 2064.013184,867.594727 
	C2051.839844,865.042358 2043.775635,855.300110 2043.808838,842.776001 
	C2043.817383,839.525635 2044.708740,836.277588 2045.485107,832.275635 
z"/>
</svg>